<?xml version="1.0" encoding="utf-8"?>
<!-- Generator: Adobe Illustrator 16.0.0, SVG Export Plug-In . SVG Version: 6.00 Build 0)  -->
<!DOCTYPE svg PUBLIC "-//W3C//DTD SVG 1.1//EN" "http://www.w3.org/Graphics/SVG/1.1/DTD/svg11.dtd">
<svg version="1.1" id="Layer_1" xmlns="http://www.w3.org/2000/svg" xmlns:xlink="http://www.w3.org/1999/xlink" x="0px" y="0px"
	 width="341.259px" height="127.972px" viewBox="0 0 341.259 127.972" enable-background="new 0 0 341.259 127.972"
	 xml:space="preserve">
<g>
	<path fill="#6D6E71" d="M163.1,112.853v5.9h-0.456v-5.9H163.1z"/>
	<path fill="#6D6E71" d="M169.917,112.853v5.9h-0.375l-4.486-5.157v5.157h-0.456v-5.9h0.387l4.475,5.157v-5.157H169.917z"/>
	<path fill="#6D6E71" d="M171.424,112.853h2.065c1.044,0,1.842,0.274,2.393,0.823s0.826,1.259,0.826,2.129
		c0,0.854-0.272,1.558-0.817,2.114c-0.545,0.556-1.319,0.834-2.321,0.834h-2.146V112.853z M171.88,113.233v5.141h1.664
		c0.763,0,1.398-0.234,1.907-0.703c0.508-0.47,0.762-1.091,0.762-1.865c0-0.758-0.25-1.376-0.751-1.854
		c-0.502-0.479-1.15-0.718-1.947-0.718H171.88z"/>
	<path fill="#6D6E71" d="M181.148,112.853v0.38h-2.763v2.361h2.691v0.384h-2.691v2.396h2.83v0.38h-3.286v-5.9H181.148z"/>
	<path fill="#6D6E71" d="M182.206,112.853h1.626c0.622,0,1.099,0.139,1.43,0.418c0.331,0.278,0.497,0.659,0.497,1.141
		c0,0.487-0.167,0.873-0.501,1.157s-0.823,0.427-1.468,0.427h-1.128v2.758h-0.456V112.853z M182.662,113.233v2.382h1.099
		c0.492,0,0.867-0.104,1.123-0.312c0.257-0.208,0.385-0.502,0.385-0.883c0-0.363-0.126-0.651-0.376-0.865
		c-0.251-0.214-0.609-0.321-1.077-0.321H182.662z"/>
	<path fill="#6D6E71" d="M189.886,112.853v0.38h-2.763v2.361h2.691v0.384h-2.691v2.396h2.83v0.38h-3.286v-5.9H189.886z"/>
	<path fill="#6D6E71" d="M196.261,112.853v5.9h-0.375l-4.486-5.157v5.157h-0.456v-5.9h0.387l4.475,5.157v-5.157H196.261z"/>
	<path fill="#6D6E71" d="M197.777,112.853h2.065c1.044,0,1.842,0.274,2.393,0.823s0.826,1.259,0.826,2.129
		c0,0.854-0.272,1.558-0.817,2.114c-0.545,0.556-1.319,0.834-2.321,0.834h-2.146V112.853z M198.233,113.233v5.141h1.664
		c0.763,0,1.398-0.234,1.907-0.703c0.508-0.47,0.762-1.091,0.762-1.865c0-0.758-0.25-1.376-0.751-1.854
		c-0.502-0.479-1.15-0.718-1.947-0.718H198.233z"/>
	<path fill="#6D6E71" d="M207.502,112.853v0.38h-2.763v2.361h2.691v0.384h-2.691v2.396h2.83v0.38h-3.286v-5.9H207.502z"/>
	<path fill="#6D6E71" d="M213.877,112.853v5.9h-0.375l-4.486-5.157v5.157h-0.456v-5.9h0.387l4.475,5.157v-5.157H213.877z"/>
	<path fill="#6D6E71" d="M219.595,112.853v0.38h-2.214v5.521h-0.46v-5.521h-2.213v-0.38H219.595z"/>
	<path fill="#6D6E71" d="M220.886,112.853v5.521h2.919v0.38h-3.375v-5.9H220.886z"/>
	<path fill="#6D6E71" d="M228.225,112.853l-2.293,2.732v3.168h-0.456v-3.168l-2.294-2.732h0.552l1.973,2.337l1.962-2.337H228.225z"
		/>
	<path fill="#6D6E71" d="M234.021,112.777c0.873,0,1.612,0.293,2.22,0.881c0.606,0.587,0.91,1.303,0.91,2.147
		c0,0.842-0.304,1.557-0.91,2.144c-0.607,0.587-1.347,0.881-2.22,0.881c-0.87,0-1.607-0.294-2.211-0.881
		c-0.604-0.587-0.906-1.302-0.906-2.144c0-0.845,0.302-1.561,0.906-2.147C232.413,113.07,233.15,112.777,234.021,112.777z
		 M234.037,118.407c0.735,0,1.355-0.251,1.86-0.754c0.506-0.502,0.759-1.118,0.759-1.848c0-0.732-0.253-1.35-0.759-1.853
		c-0.505-0.502-1.125-0.754-1.86-0.754c-0.737,0-1.362,0.252-1.873,0.754c-0.511,0.503-0.767,1.12-0.767,1.853
		c0,0.729,0.256,1.346,0.767,1.848C232.675,118.156,233.3,118.407,234.037,118.407z"/>
	<path fill="#6D6E71" d="M241.905,113.833l-1.978,4.98h-0.123l-2.375-5.96h0.469l1.954,4.896l1.98-4.896h0.142l1.971,4.896
		l1.959-4.896h0.468l-2.379,5.96h-0.11L241.905,113.833z"/>
	<path fill="#6D6E71" d="M252.486,112.853v5.9h-0.375l-4.486-5.157v5.157h-0.456v-5.9h0.387l4.475,5.157v-5.157H252.486z"/>
	<path fill="#6D6E71" d="M257.221,112.853v0.38h-2.763v2.361h2.691v0.384h-2.691v2.396h2.83v0.38h-3.286v-5.9H257.221z"/>
	<path fill="#6D6E71" d="M258.287,112.853h2.065c1.044,0,1.842,0.274,2.393,0.823s0.826,1.259,0.826,2.129
		c0,0.854-0.272,1.558-0.817,2.114c-0.545,0.556-1.319,0.834-2.321,0.834h-2.146V112.853z M258.743,113.233v5.141h1.664
		c0.763,0,1.398-0.234,1.907-0.703c0.508-0.47,0.762-1.091,0.762-1.865c0-0.758-0.25-1.376-0.751-1.854
		c-0.502-0.479-1.15-0.718-1.947-0.718H258.743z"/>
	<path fill="#6D6E71" d="M269.256,112.81l2.729,5.943h-0.479l-0.934-2.04h-2.886l-0.93,2.04h-0.479l2.728-5.943H269.256z
		 M270.398,116.333l-1.271-2.779l-1.268,2.779H270.398z"/>
	<path fill="#6D6E71" d="M278.129,112.853v5.9h-0.375l-4.486-5.157v5.157h-0.456v-5.9h0.387l4.475,5.157v-5.157H278.129z"/>
	<path fill="#6D6E71" d="M279.637,112.853h2.065c1.044,0,1.842,0.274,2.393,0.823s0.826,1.259,0.826,2.129
		c0,0.854-0.272,1.558-0.817,2.114c-0.545,0.556-1.319,0.834-2.321,0.834h-2.146V112.853z M280.093,113.233v5.141h1.664
		c0.763,0,1.398-0.234,1.907-0.703c0.508-0.47,0.762-1.091,0.762-1.865c0-0.758-0.25-1.376-0.751-1.854
		c-0.502-0.479-1.15-0.718-1.947-0.718H280.093z"/>
	<path fill="#6D6E71" d="M291.159,112.777c0.873,0,1.612,0.293,2.22,0.881c0.606,0.587,0.91,1.303,0.91,2.147
		c0,0.842-0.304,1.557-0.91,2.144c-0.607,0.587-1.347,0.881-2.22,0.881c-0.87,0-1.607-0.294-2.211-0.881
		c-0.604-0.587-0.906-1.302-0.906-2.144c0-0.845,0.302-1.561,0.906-2.147C289.552,113.07,290.289,112.777,291.159,112.777z
		 M291.176,118.407c0.735,0,1.355-0.251,1.86-0.754c0.506-0.502,0.759-1.118,0.759-1.848c0-0.732-0.253-1.35-0.759-1.853
		c-0.505-0.502-1.125-0.754-1.86-0.754c-0.737,0-1.362,0.252-1.873,0.754c-0.511,0.503-0.767,1.12-0.767,1.853
		c0,0.729,0.256,1.346,0.767,1.848C289.813,118.156,290.438,118.407,291.176,118.407z"/>
	<path fill="#6D6E71" d="M295.504,112.853h1.626c0.622,0,1.099,0.139,1.43,0.418c0.331,0.278,0.497,0.659,0.497,1.141
		c0,0.487-0.167,0.873-0.501,1.157s-0.823,0.427-1.468,0.427h-1.128v2.758h-0.456V112.853z M295.96,113.233v2.382h1.099
		c0.492,0,0.867-0.104,1.123-0.312c0.257-0.208,0.385-0.502,0.385-0.883c0-0.363-0.126-0.651-0.376-0.865
		c-0.251-0.214-0.609-0.321-1.077-0.321H295.96z"/>
	<path fill="#6D6E71" d="M303.184,112.853v0.38h-2.763v2.361h2.691v0.384h-2.691v2.396h2.83v0.38h-3.286v-5.9H303.184z"/>
	<path fill="#6D6E71" d="M304.249,112.853h1.512c0.634,0,1.118,0.137,1.453,0.411c0.335,0.275,0.503,0.646,0.503,1.113
		c0,0.682-0.375,1.16-1.124,1.437c0.194,0.093,0.456,0.393,0.786,0.899l1.334,2.04h-0.54l-1.027-1.617
		c-0.344-0.541-0.611-0.878-0.803-1.012s-0.471-0.201-0.84-0.201h-0.798v2.83h-0.456V112.853z M304.705,113.233v2.311h0.979
		c0.499,0,0.88-0.101,1.143-0.302c0.264-0.202,0.396-0.486,0.396-0.855c0-0.363-0.134-0.646-0.401-0.85
		c-0.268-0.202-0.652-0.304-1.153-0.304H304.705z"/>
	<path fill="#6D6E71" d="M312.062,112.81l2.729,5.943h-0.479l-0.934-2.04h-2.886l-0.93,2.04h-0.479l2.728-5.943H312.062z
		 M313.205,116.333l-1.271-2.779l-1.268,2.779H313.205z"/>
	<path fill="#6D6E71" d="M319.128,112.853v0.38h-2.214v5.521h-0.46v-5.521h-2.213v-0.38H319.128z"/>
	<path fill="#6D6E71" d="M323.181,112.853v0.38h-2.763v2.361h2.691v0.384h-2.691v2.396h2.83v0.38h-3.286v-5.9H323.181z"/>
	<path fill="#6D6E71" d="M324.246,112.853h2.065c1.044,0,1.842,0.274,2.393,0.823s0.826,1.259,0.826,2.129
		c0,0.854-0.272,1.558-0.817,2.114c-0.545,0.556-1.319,0.834-2.321,0.834h-2.146V112.853z M324.702,113.233v5.141h1.664
		c0.763,0,1.398-0.234,1.907-0.703c0.508-0.47,0.762-1.091,0.762-1.865c0-0.758-0.25-1.376-0.751-1.854
		c-0.502-0.479-1.15-0.718-1.947-0.718H324.702z"/>
</g>
<polygon fill="#008DBF" points="167.312,98.277 171.305,93.395 172.126,93.395 172.126,103.905 171.307,103.905 171.307,94.583 
	167.308,99.497 163.293,94.583 163.293,103.905 162.48,103.905 162.48,93.395 163.293,93.395 "/>
<g>
	<defs>
		<rect id="SVGID_1_" width="341.259" height="127.972"/>
	</defs>
	<clipPath id="SVGID_2_">
		<use xlink:href="#SVGID_1_"  overflow="visible"/>
	</clipPath>
	<path clip-path="url(#SVGID_2_)" fill="#008DBF" d="M179.499,93.259c1.553,0,2.871,0.522,3.95,1.568
		c1.081,1.045,1.62,2.32,1.62,3.826c0,1.498-0.539,2.772-1.62,3.818c-1.079,1.045-2.397,1.568-3.95,1.568
		c-1.55,0-2.862-0.523-3.936-1.568c-1.076-1.046-1.612-2.32-1.612-3.818c0-1.506,0.536-2.781,1.612-3.826
		C176.637,93.782,177.949,93.259,179.499,93.259 M179.529,103.289c1.307,0,2.412-0.447,3.312-1.343c0.9-0.896,1.35-1.992,1.35-3.292
		c0-1.304-0.449-2.404-1.35-3.3c-0.899-0.895-2.005-1.342-3.312-1.342c-1.313,0-2.424,0.447-3.333,1.342
		c-0.912,0.896-1.366,1.996-1.366,3.3c0,1.3,0.454,2.396,1.366,3.292C177.105,102.841,178.216,103.289,179.529,103.289"/>
	<path clip-path="url(#SVGID_2_)" fill="#008DBF" d="M186.548,93.395h2.694c1.128,0,1.99,0.242,2.587,0.734
		c0.596,0.487,0.896,1.148,0.896,1.98c0,1.214-0.668,2.067-2.002,2.56c0.348,0.166,0.812,0.697,1.4,1.601l2.377,3.634h-0.962
		l-1.831-2.879c-0.612-0.965-1.088-1.565-1.428-1.803c-0.343-0.24-0.842-0.358-1.498-0.358h-1.421v5.04h-0.812V93.395z
		 M187.36,94.072v4.116h1.744c0.89,0,1.567-0.179,2.036-0.538c0.47-0.359,0.703-0.869,0.703-1.523c0-0.648-0.238-1.151-0.715-1.513
		c-0.476-0.361-1.161-0.542-2.054-0.542H187.36z"/>
	<polygon clip-path="url(#SVGID_2_)" fill="#008DBF" points="202.627,93.395 202.627,94.072 198.687,94.072 198.687,103.905 
		197.866,103.905 197.866,94.072 193.923,94.072 193.923,93.395 	"/>
	<path clip-path="url(#SVGID_2_)" fill="#008DBF" d="M211.981,94.156v0.917c-1.244-0.706-2.486-1.062-3.724-1.062
		c-1.329,0-2.436,0.441-3.318,1.323c-0.883,0.884-1.325,1.99-1.325,3.319s0.438,2.434,1.31,3.313
		c0.873,0.881,2.06,1.321,3.559,1.321c1.085,0,2.045-0.216,2.882-0.648v-2.838h-2.22v-0.676h3.041v4.026
		c-1.239,0.592-2.483,0.889-3.732,0.889c-1.629,0-2.991-0.518-4.082-1.552c-1.091-1.032-1.637-2.322-1.637-3.866
		c0-1.534,0.537-2.812,1.606-3.834c1.071-1.021,2.416-1.53,4.037-1.53C209.481,93.259,210.683,93.558,211.981,94.156"/>
	<path clip-path="url(#SVGID_2_)" fill="#008DBF" d="M218.842,93.319l4.858,10.585h-0.854l-1.661-3.634h-5.141l-1.657,3.634h-0.853
		l4.859-10.585H218.842z M220.875,99.594l-2.266-4.951l-2.257,4.951H220.875z"/>
	<path clip-path="url(#SVGID_2_)" fill="#008DBF" d="M233.036,94.156v0.917c-1.242-0.706-2.484-1.062-3.723-1.062
		c-1.329,0-2.436,0.441-3.319,1.323c-0.882,0.884-1.322,1.99-1.322,3.319s0.436,2.434,1.309,3.313
		c0.873,0.881,2.058,1.321,3.558,1.321c1.084,0,2.044-0.216,2.883-0.648v-2.838H230.2v-0.676h3.04v4.026
		c-1.237,0.592-2.482,0.889-3.731,0.889c-1.63,0-2.991-0.518-4.081-1.552c-1.09-1.032-1.637-2.322-1.637-3.866
		c0-1.534,0.535-2.812,1.606-3.834c1.07-1.021,2.416-1.53,4.036-1.53C230.537,93.259,231.738,93.558,233.036,94.156"/>
	<polygon clip-path="url(#SVGID_2_)" fill="#008DBF" points="240.754,93.395 240.754,94.072 235.833,94.072 235.833,98.278 
		240.625,98.278 240.625,98.962 235.833,98.962 235.833,103.228 240.873,103.228 240.873,103.905 235.021,103.905 235.021,93.395 	
		"/>
	<path clip-path="url(#SVGID_2_)" fill="#6D6E71" d="M247.146,93.34l4.851,10.566h-0.852l-1.659-3.629h-5.131l-1.654,3.629h-0.851
		l4.849-10.566H247.146z M249.176,99.604l-2.261-4.941l-2.253,4.941H249.176z"/>
	<path clip-path="url(#SVGID_2_)" fill="#6D6E71" d="M253.426,93.415h2.688c1.127,0,1.987,0.244,2.584,0.734
		c0.595,0.489,0.894,1.147,0.894,1.978c0,1.213-0.667,2.063-1.998,2.555c0.346,0.164,0.811,0.697,1.396,1.597l2.374,3.629h-0.961
		l-1.826-2.875c-0.611-0.963-1.086-1.562-1.427-1.8s-0.84-0.357-1.494-0.357h-1.419v5.032h-0.812V93.415z M254.237,94.091v4.107
		h1.741c0.887,0,1.563-0.179,2.031-0.537c0.471-0.356,0.702-0.864,0.702-1.521c0-0.646-0.238-1.148-0.713-1.51
		c-0.475-0.359-1.158-0.54-2.05-0.54H254.237z"/>
	<path clip-path="url(#SVGID_2_)" fill="#6D6E71" d="M270.438,94.159v0.888c-1.272-0.677-2.518-1.015-3.739-1.015
		c-1.303,0-2.391,0.442-3.268,1.329c-0.875,0.886-1.313,1.993-1.313,3.319c0,1.341,0.44,2.446,1.322,3.311
		c0.88,0.868,2.004,1.299,3.371,1.299c1.141,0,2.385-0.357,3.731-1.072v0.841c-1.242,0.655-2.479,0.983-3.716,0.983
		c-1.599,0-2.929-0.512-3.992-1.536c-1.063-1.022-1.596-2.299-1.596-3.825c0-1.536,0.543-2.822,1.629-3.854s2.381-1.547,3.884-1.547
		C267.934,93.28,269.161,93.575,270.438,94.159"/>
	<polygon clip-path="url(#SVGID_2_)" fill="#6D6E71" points="281.118,93.415 281.118,103.907 280.299,103.907 280.299,98.935 
		273.301,98.935 273.301,103.907 272.49,103.907 272.49,93.415 273.301,93.415 273.301,98.26 280.299,98.26 280.299,93.415 	"/>
	<rect x="283.296" y="93.415" clip-path="url(#SVGID_2_)" fill="#6D6E71" width="0.812" height="10.491"/>
	<polygon clip-path="url(#SVGID_2_)" fill="#6D6E71" points="294.283,93.415 294.283,94.091 290.348,94.091 290.348,103.907 
		289.529,103.907 289.529,94.091 285.594,94.091 285.594,93.415 	"/>
	<polygon clip-path="url(#SVGID_2_)" fill="#6D6E71" points="301.305,93.415 301.305,94.091 296.393,94.091 296.393,98.289 
		301.177,98.289 301.177,98.972 296.393,98.972 296.393,103.23 301.425,103.23 301.425,103.907 295.583,103.907 295.583,93.415 	"/>
	<path clip-path="url(#SVGID_2_)" fill="#6D6E71" d="M311.842,94.159v0.888c-1.272-0.677-2.52-1.015-3.74-1.015
		c-1.303,0-2.392,0.442-3.269,1.329c-0.876,0.886-1.313,1.993-1.313,3.319c0,1.341,0.44,2.446,1.323,3.311
		c0.881,0.868,2.004,1.299,3.372,1.299c1.141,0,2.384-0.357,3.73-1.072v0.841c-1.241,0.655-2.48,0.983-3.717,0.983
		c-1.597,0-2.927-0.512-3.991-1.536c-1.063-1.022-1.596-2.299-1.596-3.825c0-1.536,0.543-2.822,1.629-3.854
		c1.087-1.031,2.382-1.547,3.882-1.547C309.334,93.28,310.564,93.575,311.842,94.159"/>
	<polygon clip-path="url(#SVGID_2_)" fill="#6D6E71" points="321.532,93.415 321.532,94.091 317.596,94.091 317.596,103.907 
		316.778,103.907 316.778,94.091 312.843,94.091 312.843,93.415 	"/>
	<path clip-path="url(#SVGID_2_)" fill="#6D6E71" d="M327.751,93.941v0.894c-0.912-0.536-1.696-0.804-2.352-0.804
		c-0.631,0-1.157,0.192-1.583,0.574c-0.422,0.384-0.633,0.858-0.633,1.424c0,0.406,0.125,0.771,0.375,1.097s0.773,0.637,1.57,0.938
		c0.797,0.299,1.377,0.551,1.743,0.751c0.365,0.2,0.677,0.493,0.93,0.872c0.256,0.38,0.384,0.873,0.384,1.479
		c0,0.806-0.295,1.487-0.887,2.043c-0.59,0.557-1.312,0.832-2.163,0.832c-0.871,0-1.767-0.304-2.688-0.915v-0.953
		c1.017,0.746,1.898,1.117,2.645,1.117c0.621,0,1.145-0.199,1.573-0.603c0.428-0.404,0.641-0.898,0.641-1.484
		c0-0.445-0.132-0.847-0.397-1.205c-0.266-0.359-0.803-0.691-1.613-1.004c-0.812-0.312-1.391-0.562-1.739-0.753
		c-0.348-0.189-0.643-0.461-0.885-0.814c-0.244-0.352-0.365-0.806-0.365-1.362c0-0.771,0.295-1.427,0.887-1.97
		c0.589-0.543,1.3-0.814,2.131-0.814C326.141,93.28,326.948,93.501,327.751,93.941"/>
	<path clip-path="url(#SVGID_2_)" fill="#6D6E71" d="M330.318,93.561c-0.218-0.217-0.479-0.327-0.785-0.327
		c-0.307,0-0.568,0.11-0.786,0.327c-0.218,0.218-0.325,0.48-0.325,0.787c0,0.305,0.107,0.567,0.325,0.785
		c0.218,0.217,0.479,0.327,0.786,0.327c0.306,0,0.567-0.11,0.785-0.327c0.219-0.218,0.327-0.48,0.327-0.785
		C330.646,94.042,330.537,93.779,330.318,93.561 M330.219,95.035c-0.189,0.19-0.419,0.286-0.686,0.286
		c-0.268,0-0.495-0.096-0.686-0.286c-0.19-0.192-0.286-0.418-0.286-0.687c0-0.268,0.096-0.496,0.286-0.687
		c0.19-0.191,0.418-0.287,0.686-0.287c0.267,0,0.496,0.096,0.686,0.287c0.191,0.19,0.287,0.419,0.287,0.687
		C330.506,94.617,330.41,94.842,330.219,95.035"/>
	<path clip-path="url(#SVGID_2_)" fill="#6D6E71" d="M329.646,94.411c0.213-0.037,0.32-0.145,0.32-0.324
		c0-0.098-0.036-0.174-0.106-0.229s-0.167-0.084-0.291-0.084h-0.482v1.171h0.143V94.43h0.068c0.134,0,0.229,0.029,0.291,0.086
		c0.061,0.057,0.143,0.201,0.247,0.429h0.177c-0.086-0.201-0.146-0.327-0.185-0.38C329.79,94.513,329.729,94.459,329.646,94.411
		 M329.422,94.315h-0.193v-0.423h0.216c0.13,0,0.221,0.014,0.273,0.044c0.051,0.029,0.077,0.083,0.077,0.161
		c0,0.081-0.029,0.138-0.084,0.17C329.651,94.298,329.557,94.315,329.422,94.315"/>
	<polygon clip-path="url(#SVGID_2_)" fill="#FFFFFF" points="98.106,57.137 98.106,70.474 121.508,70.474 121.508,57.131 
		124.582,57.131 124.592,56.392 109.811,44.929 95.154,56.293 95.156,57.137 	"/>
	<path clip-path="url(#SVGID_2_)" fill="#008DBF" d="M123.036,16.166H97.945L80.038,62.587L64.588,16.173H41.698L6.479,104.555
		h24.919l19.502-48.801l0.601-0.078l18.092,48.879h18.589l6.195-15.283h31.687l5.725,15.257h24.512L123.036,16.166z M124.583,57.131
		h-3.074v13.343H98.106V57.137h-2.95l-0.003-0.844l14.657-11.364l14.781,11.463L124.583,57.131z"/>
</g>
<g>
	<path fill="#008DBF" d="M179.888,31.665v3.223c-2.148,1.172-4.629,1.758-7.441,1.758c-2.285,0-4.224-0.459-5.815-1.377
		s-2.852-2.183-3.779-3.794s-1.392-3.354-1.392-5.229c0-2.979,1.062-5.483,3.186-7.515s4.744-3.047,7.859-3.047
		c2.148,0,4.536,0.562,7.163,1.685v3.149c-2.393-1.367-4.731-2.051-7.017-2.051c-2.344,0-4.29,0.74-5.837,2.219
		s-2.322,3.333-2.322,5.559c0,2.246,0.762,4.092,2.285,5.537s3.472,2.168,5.845,2.168C175.103,33.95,177.524,33.188,179.888,31.665z
		"/>
	<path fill="#008DBF" d="M190.295,15.83h2.059l9.176,20.581h-2.999l-2.727-6.064h-8.731l-2.557,6.064h-3.011L190.295,15.83z
		 M194.599,27.739l-3.301-7.412l-3.062,7.412H194.599z"/>
	<path fill="#008DBF" d="M220.03,15.947h2.783v20.464h-2.52l-13.682-15.76v15.76h-2.754V15.947h2.373l13.799,15.894V15.947z"/>
	<path fill="#008DBF" d="M233.818,15.83h2.059l9.176,20.581h-2.999l-2.727-6.064h-8.731l-2.557,6.064h-3.011L233.818,15.83z
		 M238.122,27.739l-3.301-7.412l-3.062,7.412H238.122z"/>
	<path fill="#008DBF" d="M247.323,36.381V15.947h6.899c2.783,0,4.985,0.417,6.606,1.252s2.91,2.063,3.867,3.684
		s1.436,3.389,1.436,5.303c0,1.367-0.264,2.676-0.791,3.926s-1.279,2.349-2.256,3.296c-0.996,0.977-2.153,1.714-3.472,2.212
		c-0.771,0.303-1.479,0.505-2.124,0.608s-1.875,0.154-3.691,0.154H247.323z M253.915,18.554h-3.662v15.22h3.75
		c1.465,0,2.603-0.1,3.413-0.3s1.487-0.454,2.028-0.762c0.543-0.308,1.038-0.686,1.487-1.135c1.445-1.465,2.168-3.315,2.168-5.552
		c0-2.197-0.742-3.989-2.227-5.376c-0.547-0.518-1.175-0.942-1.882-1.274c-0.709-0.332-1.38-0.552-2.015-0.659
		S255.321,18.554,253.915,18.554z"/>
	<path fill="#008DBF" d="M275.248,15.83h2.059l9.176,20.581h-2.999l-2.727-6.064h-8.731l-2.557,6.064h-3.011L275.248,15.83z
		 M279.552,27.739l-3.301-7.412l-3.062,7.412H279.552z"/>
</g>
<g>
	<path fill="#008DBF" d="M162.28,41.957h2.93v20.464h-2.93V41.957z"/>
	<path fill="#008DBF" d="M186.101,41.957h2.783v20.464h-2.52l-13.682-15.76v15.76h-2.754V41.957h2.373l13.799,15.894V41.957z"/>
	<path fill="#008DBF" d="M209.703,41.957h2.783v20.464h-2.52l-13.682-15.76v15.76h-2.754V41.957h2.373l13.799,15.894V41.957z"/>
	<path fill="#008DBF" d="M226.998,41.664c3.162,0,5.795,1.001,7.898,3.003c2.103,2.002,3.154,4.512,3.154,7.529
		s-1.062,5.515-3.184,7.493c-2.123,1.978-4.8,2.966-8.029,2.966c-3.084,0-5.653-0.989-7.708-2.966
		c-2.054-1.978-3.081-4.456-3.081-7.434c0-3.057,1.034-5.586,3.104-7.588C221.221,42.665,223.837,41.664,226.998,41.664z
		 M227.115,44.447c-2.341,0-4.266,0.732-5.773,2.197c-1.507,1.465-2.261,3.335-2.261,5.61c0,2.207,0.756,4.043,2.269,5.508
		c1.512,1.465,3.405,2.197,5.678,2.197c2.283,0,4.188-0.747,5.716-2.241c1.526-1.494,2.29-3.354,2.29-5.581
		c0-2.168-0.764-3.992-2.29-5.471C231.216,45.187,229.34,44.447,227.115,44.447z"/>
	<path fill="#008DBF" d="M253.535,41.957h2.918l-8.652,20.552h-0.663l-8.819-20.552h2.949l6.154,14.37L253.535,41.957z"/>
	<path fill="#008DBF" d="M263.398,41.84h2.059l9.176,20.581h-2.999l-2.727-6.064h-8.731l-2.557,6.064h-3.011L263.398,41.84z
		 M267.702,53.749l-3.301-7.412l-3.062,7.412H267.702z"/>
	<path fill="#008DBF" d="M272.49,41.928h17.095v2.607h-7.134v17.886h-2.944V44.535h-7.017V41.928z"/>
	<path fill="#008DBF" d="M292.144,41.957h2.93v20.464h-2.93V41.957z"/>
	<path fill="#008DBF" d="M312.575,41.957h2.918l-8.652,20.552h-0.663l-8.819-20.552h2.949l6.154,14.37L312.575,41.957z"/>
	<path fill="#008DBF" d="M317.764,41.957h11.602v2.607h-8.672v6.24h8.379v2.622h-8.379v6.357h8.95v2.607h-11.88V41.957z"/>
</g>
<g>
	<path fill="#008DBF" d="M162.28,67.947h10.913v2.607h-7.983v5.713h7.983v2.607h-7.983v9.536h-2.93V67.947z"/>
	<path fill="#008DBF" d="M176.447,67.947h2.93v20.464h-2.93V67.947z"/>
	<path fill="#008DBF" d="M200.268,67.947h2.783v20.464h-2.52L186.85,72.65v15.761h-2.754V67.947h2.373l13.799,15.895V67.947z"/>
	<path fill="#008DBF" d="M214.055,67.83h2.059l9.176,20.581h-2.999l-2.727-6.064h-8.731l-2.557,6.064h-3.011L214.055,67.83z
		 M218.358,79.739l-3.301-7.412l-3.062,7.412H218.358z"/>
	<path fill="#008DBF" d="M243.79,67.947h2.783v20.464h-2.52L230.372,72.65v15.761h-2.754V67.947h2.373l13.799,15.895V67.947z"/>
	<path fill="#008DBF" d="M268.59,83.665v3.223c-2.148,1.172-4.629,1.758-7.441,1.758c-2.285,0-4.224-0.459-5.815-1.377
		s-2.852-2.183-3.779-3.794s-1.392-3.354-1.392-5.229c0-2.979,1.062-5.483,3.186-7.515c2.125-2.031,4.744-3.047,7.859-3.047
		c2.148,0,4.536,0.562,7.163,1.685v3.149c-2.393-1.367-4.731-2.051-7.017-2.051c-2.344,0-4.29,0.739-5.838,2.22
		c-1.548,1.479-2.321,3.332-2.321,5.559c0,2.246,0.762,4.092,2.285,5.537s3.472,2.168,5.845,2.168
		C263.805,85.95,266.227,85.188,268.59,83.665z"/>
	<path fill="#008DBF" d="M272.373,67.947h2.93v20.464h-2.93V67.947z"/>
	<path fill="#008DBF" d="M286.378,67.83h2.059l9.176,20.581h-2.999l-2.727-6.064h-8.731l-2.557,6.064h-3.011L286.378,67.83z
		 M290.682,79.739l-3.301-7.412l-3.062,7.412H290.682z"/>
	<path fill="#008DBF" d="M299.884,67.947h2.93v17.798h9.214v2.666h-12.144V67.947z"/>
</g>
</svg>
